<?xml version="1.0" encoding="UTF-8"?>
<!--Generator: Apple Native CoreSVG 232.5-->
<!DOCTYPE svg
PUBLIC "-//W3C//DTD SVG 1.1//EN"
       "http://www.w3.org/Graphics/SVG/1.1/DTD/svg11.dtd">
<svg version="1.1" xmlns="http://www.w3.org/2000/svg" xmlns:xlink="http://www.w3.org/1999/xlink" width="3300" height="2200">
 <!--glyph: "", point size: 100.0, font version: "19.2d2e1", template writer version: "128"-->
 <style>.monochrome-0 {-sfsymbols-motion-group:0}

.multicolor-0:tintColor {-sfsymbols-motion-group:0}

.hierarchical-0:primary {-sfsymbols-motion-group:0}

.SFSymbolsPreviewWireframe {fill:none;opacity:1.0;stroke:black;stroke-width:0.5}
</style>
 <g id="Notes">
  <rect height="2200" id="artboard" style="fill:white;opacity:1" width="3300" x="0" y="0"/>
  <line style="fill:none;stroke:black;opacity:1;stroke-width:0.5;" x1="263" x2="3036" y1="292" y2="292"/>
  <text style="stroke:none;fill:black;font-family:sans-serif;font-size:13;font-weight:bold;" transform="matrix(1 0 0 1 263 322)">Weight/Scale Variations</text>
  <text style="stroke:none;fill:black;font-family:sans-serif;font-size:13;text-anchor:middle;" transform="matrix(1 0 0 1 559.711 322)">Ultralight</text>
  <text style="stroke:none;fill:black;font-family:sans-serif;font-size:13;text-anchor:middle;" transform="matrix(1 0 0 1 856.422 322)">Thin</text>
  <text style="stroke:none;fill:black;font-family:sans-serif;font-size:13;text-anchor:middle;" transform="matrix(1 0 0 1 1153.13 322)">Light</text>
  <text style="stroke:none;fill:black;font-family:sans-serif;font-size:13;text-anchor:middle;" transform="matrix(1 0 0 1 1449.84 322)">Regular</text>
  <text style="stroke:none;fill:black;font-family:sans-serif;font-size:13;text-anchor:middle;" transform="matrix(1 0 0 1 1746.56 322)">Medium</text>
  <text style="stroke:none;fill:black;font-family:sans-serif;font-size:13;text-anchor:middle;" transform="matrix(1 0 0 1 2043.27 322)">Semibold</text>
  <text style="stroke:none;fill:black;font-family:sans-serif;font-size:13;text-anchor:middle;" transform="matrix(1 0 0 1 2339.98 322)">Bold</text>
  <text style="stroke:none;fill:black;font-family:sans-serif;font-size:13;text-anchor:middle;" transform="matrix(1 0 0 1 2636.69 322)">Heavy</text>
  <text style="stroke:none;fill:black;font-family:sans-serif;font-size:13;text-anchor:middle;" transform="matrix(1 0 0 1 2933.4 322)">Black</text>
  <line style="fill:none;stroke:black;opacity:1;stroke-width:0.5;" x1="263" x2="3036" y1="1903" y2="1903"/>
  <g transform="matrix(0.2 0 0 0.2 263 1933)">
   <path d="m46.2402 4.15039c21.5332 0 39.4531-17.8711 39.4531-39.4043s-17.9688-39.4043-39.502-39.4043c-21.4844 0-39.3555 17.8711-39.3555 39.4043s17.9199 39.4043 39.4043 39.4043Zm0-7.42188c-17.7246 0-31.8848-14.209-31.8848-31.9824s14.1113-31.9824 31.8359-31.9824c17.7734 0 32.0312 14.209 32.0312 31.9824s-14.209 31.9824-31.9824 31.9824Zm-17.9688-31.9824c0 2.14844 1.51367 3.61328 3.75977 3.61328h10.498v10.5957c0 2.19727 1.46484 3.71094 3.61328 3.71094 2.24609 0 3.71094-1.51367 3.71094-3.71094v-10.5957h10.5957c2.19727 0 3.71094-1.46484 3.71094-3.61328 0-2.19727-1.51367-3.71094-3.71094-3.71094h-10.5957v-10.5469c0-2.24609-1.46484-3.75977-3.71094-3.75977-2.14844 0-3.61328 1.51367-3.61328 3.75977v10.5469h-10.498c-2.24609 0-3.75977 1.51367-3.75977 3.71094Z"/>
  </g>
  <g transform="matrix(0.2 0 0 0.2 281.506 1933)">
   <path d="m58.5449 14.5508c27.2461 0 49.8047-22.6074 49.8047-49.8047 0-27.2461-22.6074-49.8047-49.8535-49.8047-27.1973 0-49.7559 22.5586-49.7559 49.8047 0 27.1973 22.6074 49.8047 49.8047 49.8047Zm0-8.30078c-23.0469 0-41.4551-18.457-41.4551-41.5039s18.3594-41.5039 41.4062-41.5039 41.5527 18.457 41.5527 41.5039-18.457 41.5039-41.5039 41.5039Zm-22.6562-41.5039c0 2.39258 1.66016 4.00391 4.15039 4.00391h14.3555v14.4043c0 2.44141 1.66016 4.15039 4.05273 4.15039 2.44141 0 4.15039-1.66016 4.15039-4.15039v-14.4043h14.4043c2.44141 0 4.15039-1.61133 4.15039-4.00391 0-2.44141-1.70898-4.15039-4.15039-4.15039h-14.4043v-14.3555c0-2.49023-1.70898-4.19922-4.15039-4.19922-2.39258 0-4.05273 1.70898-4.05273 4.19922v14.3555h-14.3555c-2.49023 0-4.15039 1.70898-4.15039 4.15039Z"/>
  </g>
  <g transform="matrix(0.2 0 0 0.2 304.924 1933)">
   <path d="m74.8535 28.3203c34.8145 0 63.623-28.8086 63.623-63.5742 0-34.8145-28.8574-63.623-63.6719-63.623-34.7656 0-63.5254 28.8086-63.5254 63.623 0 34.7656 28.8086 63.5742 63.5742 63.5742Zm0-9.08203c-30.1758 0-54.4434-24.3164-54.4434-54.4922 0-30.2246 24.2188-54.4922 54.3945-54.4922 30.2246 0 54.541 24.2676 54.541 54.4922 0 30.1758-24.2676 54.4922-54.4922 54.4922Zm-28.8574-54.4922c0 2.58789 1.85547 4.39453 4.58984 4.39453h19.7266v19.7754c0 2.68555 1.85547 4.58984 4.44336 4.58984 2.68555 0 4.54102-1.85547 4.54102-4.58984v-19.7754h19.7754c2.68555 0 4.58984-1.80664 4.58984-4.39453 0-2.73438-1.85547-4.58984-4.58984-4.58984h-19.7754v-19.7266c0-2.73438-1.85547-4.63867-4.54102-4.63867-2.58789 0-4.44336 1.9043-4.44336 4.63867v19.7266h-19.7266c-2.73438 0-4.58984 1.85547-4.58984 4.58984Z"/>
  </g>
  <text style="stroke:none;fill:black;font-family:sans-serif;font-size:13;font-weight:bold;" transform="matrix(1 0 0 1 263 1953)">Design Variations</text>
  <text style="stroke:none;fill:black;font-family:sans-serif;font-size:13;" transform="matrix(1 0 0 1 263 1971)">Symbols are supported in up to nine weights and three scales.</text>
  <text style="stroke:none;fill:black;font-family:sans-serif;font-size:13;" transform="matrix(1 0 0 1 263 1989)">For optimal layout with text and other symbols, vertically align</text>
  <text style="stroke:none;fill:black;font-family:sans-serif;font-size:13;" transform="matrix(1 0 0 1 263 2007)">symbols with the adjacent text.</text>
  <line style="fill:none;stroke:#00AEEF;stroke-width:0.5;opacity:1.0;" x1="776" x2="776" y1="1919" y2="1933"/>
  <g transform="matrix(0.2 0 0 0.2 776 1933)">
   <path d="m16.5527 0.78125c2.58789 0 3.85742-0.976562 4.78516-3.71094l6.29883-17.2363h28.8086l6.29883 17.2363c0.927734 2.73438 2.19727 3.71094 4.73633 3.71094 2.58789 0 4.24805-1.5625 4.24805-4.00391 0-0.830078-0.146484-1.61133-0.537109-2.63672l-22.9004-60.9863c-1.12305-2.97852-3.125-4.49219-6.25-4.49219-3.02734 0-5.07812 1.46484-6.15234 4.44336l-22.9004 61.084c-0.390625 1.02539-0.537109 1.80664-0.537109 2.63672 0 2.44141 1.5625 3.95508 4.10156 3.95508Zm13.4766-28.3691 11.8652-32.8613h0.244141l11.8652 32.8613Z"/>
  </g>
  <line style="fill:none;stroke:#00AEEF;stroke-width:0.5;opacity:1.0;" x1="792.836" x2="792.836" y1="1919" y2="1933"/>
  <text style="stroke:none;fill:black;font-family:sans-serif;font-size:13;font-weight:bold;" transform="matrix(1 0 0 1 776 1953)">Margins</text>
  <text style="stroke:none;fill:black;font-family:sans-serif;font-size:13;" transform="matrix(1 0 0 1 776 1971)">Leading and trailing margins on the left and right side of each symbol</text>
  <text style="stroke:none;fill:black;font-family:sans-serif;font-size:13;" transform="matrix(1 0 0 1 776 1989)">can be adjusted by modifying the x-location of the margin guidelines.</text>
  <text style="stroke:none;fill:black;font-family:sans-serif;font-size:13;" transform="matrix(1 0 0 1 776 2007)">Modifications are automatically applied proportionally to all</text>
  <text style="stroke:none;fill:black;font-family:sans-serif;font-size:13;" transform="matrix(1 0 0 1 776 2025)">scales and weights.</text>
  <g transform="matrix(0.2 0 0 0.2 1289 1933)">
   <path d="m14.209 9.32617 8.49609 8.54492c4.29688 4.3457 9.22852 4.05273 13.8672-1.07422l53.4668-58.9355-4.83398-4.88281-53.0762 58.3984c-1.75781 2.00195-3.41797 2.49023-5.76172 0.146484l-5.85938-5.81055c-2.34375-2.29492-1.80664-4.00391 0.195312-5.81055l57.373-54.0039-4.88281-4.83398-57.959 54.4434c-4.93164 4.58984-5.32227 9.47266-1.02539 13.8184Zm32.0801-90.9668c-2.09961 2.05078-2.24609 4.93164-1.07422 6.88477 1.17188 1.80664 3.4668 2.97852 6.68945 2.14844 7.32422-1.70898 14.9414-2.00195 22.0703 2.68555l-2.92969 7.27539c-1.70898 4.15039-0.830078 7.08008 1.85547 9.81445l11.4746 11.5723c2.44141 2.44141 4.49219 2.53906 7.32422 2.05078l5.32227-0.976562 3.32031 3.36914-0.195312 2.7832c-0.195312 2.49023 0.439453 4.39453 2.88086 6.78711l3.80859 3.71094c2.39258 2.39258 5.46875 2.53906 7.8125 0.195312l14.5508-14.5996c2.34375-2.34375 2.24609-5.32227-0.146484-7.71484l-3.85742-3.80859c-2.39258-2.39258-4.24805-3.17383-6.64062-2.97852l-2.88086 0.244141-3.22266-3.17383 1.2207-5.61523c0.634766-2.83203-0.146484-5.0293-3.07617-7.95898l-10.9863-10.9375c-16.6992-16.6016-38.8672-16.2109-53.3203-1.75781Zm7.4707 1.85547c12.1582-8.88672 28.6133-7.37305 39.7461 3.75977l12.1582 12.0605c1.17188 1.17188 1.36719 2.09961 1.02539 3.80859l-1.61133 7.42188 7.51953 7.42188 4.93164-0.292969c1.26953-0.0488281 1.66016 0.0488281 2.63672 1.02539l2.88086 2.88086-12.207 12.207-2.88086-2.88086c-0.976562-0.976562-1.12305-1.36719-1.07422-2.68555l0.341797-4.88281-7.4707-7.42188-7.61719 1.26953c-1.61133 0.341797-2.34375 0.195312-3.56445-0.976562l-10.0098-10.0098c-1.26953-1.17188-1.41602-2.00195-0.634766-3.85742l4.39453-10.4492c-7.8125-7.27539-17.9688-10.4004-28.125-7.42188-0.78125 0.195312-1.07422-0.439453-0.439453-0.976562Z"/>
  </g>
  <text style="stroke:none;fill:black;font-family:sans-serif;font-size:13;font-weight:bold;" transform="matrix(1 0 0 1 1289 1953)">Exporting</text>
  <text style="stroke:none;fill:black;font-family:sans-serif;font-size:13;" transform="matrix(1 0 0 1 1289 1971)">Symbols should be outlined when exporting to ensure the</text>
  <text style="stroke:none;fill:black;font-family:sans-serif;font-size:13;" transform="matrix(1 0 0 1 1289 1989)">design is preserved when submitting to Xcode.</text>
  <text id="template-version" style="stroke:none;fill:black;font-family:sans-serif;font-size:13;text-anchor:end;" transform="matrix(1 0 0 1 3036 1933)">Template v.5.0</text>
  <text style="stroke:none;fill:black;font-family:sans-serif;font-size:13;text-anchor:end;" transform="matrix(1 0 0 1 3036 1951)">Requires Xcode 15 or greater</text>
  <text id="descriptive-name" style="stroke:none;fill:black;font-family:sans-serif;font-size:13;text-anchor:end;" transform="matrix(1 0 0 1 3036 1969)">Generated from in-sight.settings</text>
  <text style="stroke:none;fill:black;font-family:sans-serif;font-size:13;text-anchor:end;" transform="matrix(1 0 0 1 3036 1987)">Typeset at 100.0 points</text>
  <text style="stroke:none;fill:black;font-family:sans-serif;font-size:13;" transform="matrix(1 0 0 1 263 726)">Small</text>
  <text style="stroke:none;fill:black;font-family:sans-serif;font-size:13;" transform="matrix(1 0 0 1 263 1156)">Medium</text>
  <text style="stroke:none;fill:black;font-family:sans-serif;font-size:13;" transform="matrix(1 0 0 1 263 1586)">Large</text>
 </g>
 <g id="Guides">
  <g id="H-reference" style="fill:#27AAE1;stroke:none;" transform="matrix(1 0 0 1 339 696)">
   <path d="M0.993654 0L3.63775 0L29.3281-67.1323L30.0303-67.1323L30.0303-70.459L28.1226-70.459ZM11.6885-24.4799L46.9815-24.4799L46.2315-26.7285L12.4385-26.7285ZM55.1196 0L57.7637 0L30.6382-70.459L29.4326-70.459L29.4326-67.1323Z"/>
  </g>
  <line id="Baseline-S" style="fill:none;stroke:#27AAE1;opacity:1;stroke-width:0.5;" x1="263" x2="3036" y1="696" y2="696"/>
  <line id="Capline-S" style="fill:none;stroke:#27AAE1;opacity:1;stroke-width:0.5;" x1="263" x2="3036" y1="625.541" y2="625.541"/>
  <g id="H-reference" style="fill:#27AAE1;stroke:none;" transform="matrix(1 0 0 1 339 1126)">
   <path d="M0.993654 0L3.63775 0L29.3281-67.1323L30.0303-67.1323L30.0303-70.459L28.1226-70.459ZM11.6885-24.4799L46.9815-24.4799L46.2315-26.7285L12.4385-26.7285ZM55.1196 0L57.7637 0L30.6382-70.459L29.4326-70.459L29.4326-67.1323Z"/>
  </g>
  <line id="Baseline-M" style="fill:none;stroke:#27AAE1;opacity:1;stroke-width:0.5;" x1="263" x2="3036" y1="1126" y2="1126"/>
  <line id="Capline-M" style="fill:none;stroke:#27AAE1;opacity:1;stroke-width:0.5;" x1="263" x2="3036" y1="1055.54" y2="1055.54"/>
  <g id="H-reference" style="fill:#27AAE1;stroke:none;" transform="matrix(1 0 0 1 339 1556)">
   <path d="M0.993654 0L3.63775 0L29.3281-67.1323L30.0303-67.1323L30.0303-70.459L28.1226-70.459ZM11.6885-24.4799L46.9815-24.4799L46.2315-26.7285L12.4385-26.7285ZM55.1196 0L57.7637 0L30.6382-70.459L29.4326-70.459L29.4326-67.1323Z"/>
  </g>
  <line id="Baseline-L" style="fill:none;stroke:#27AAE1;opacity:1;stroke-width:0.5;" x1="263" x2="3036" y1="1556" y2="1556"/>
  <line id="Capline-L" style="fill:none;stroke:#27AAE1;opacity:1;stroke-width:0.5;" x1="263" x2="3036" y1="1485.54" y2="1485.54"/>
  <line id="left-margin-Ultralight-S" style="fill:none;stroke:#00AEEF;stroke-width:0.5;opacity:1.0;" x1="513.801" x2="513.801" y1="600.785" y2="720.121"/>
  <line id="right-margin-Ultralight-S" style="fill:none;stroke:#00AEEF;stroke-width:0.5;opacity:1.0;" x1="605.621" x2="605.621" y1="600.785" y2="720.121"/>
  <line id="left-margin-Regular-S" style="fill:none;stroke:#00AEEF;stroke-width:0.5;opacity:1.0;" x1="1402.85" x2="1402.85" y1="600.785" y2="720.121"/>
  <line id="right-margin-Regular-S" style="fill:none;stroke:#00AEEF;stroke-width:0.5;opacity:1.0;" x1="1496.84" x2="1496.84" y1="600.785" y2="720.121"/>
  <line id="left-margin-Black-S" style="fill:none;stroke:#00AEEF;stroke-width:0.5;opacity:1.0;" x1="2882.57" x2="2882.57" y1="600.785" y2="720.121"/>
  <line id="right-margin-Black-S" style="fill:none;stroke:#00AEEF;stroke-width:0.5;opacity:1.0;" x1="2984.23" x2="2984.23" y1="600.785" y2="720.121"/>
 </g>
 <g id="Symbols">
  <g id="Black-S" transform="matrix(1 0 0 1 2882.57 696)">
   <path class="monochrome-0 multicolor-0:tintColor hierarchical-0:primary SFSymbolsPreviewWireframe" d="M92.37-43.34L84.6-44.02C82.95-44.16 81.41-45.02 80.55-46.43C79.43-48.27 79.6-50.57 80.91-52.21L86.13-58.74C87.02-59.86 86.93-61.47 85.92-62.48L78.24-70.16C77.21-71.19 75.56-71.26 74.45-70.33L68.49-65.33C67.22-64.27 65.53-63.78 63.92-64.17C61.82-64.68 60.32-66.43 60.09-68.52L59.16-76.82C59-78.24 57.8-79.32 56.37-79.32L45.51-79.32C44.05-79.32 42.84-78.21 42.71-76.76L42.03-69.02C41.89-67.37 41.03-65.83 39.62-64.97C37.78-63.85 35.48-64.02 33.84-65.33L27.31-70.55C26.19-71.44 24.58-71.35 23.57-70.34L15.89-62.66C14.86-61.63 14.79-59.98 15.72-58.87L20.72-52.91C21.78-51.64 22.27-49.95 21.88-48.34C21.37-46.24 19.62-44.74 17.53-44.51L9.2-43.58C7.78-43.42 6.7-42.22 6.7-40.79L6.7-29.94C6.7-28.48 7.81-27.27 9.27-27.14L17.04-26.46C18.69-26.32 20.23-25.46 21.09-24.05C22.21-22.21 22.04-19.91 20.73-18.27L15.48-11.7C14.59-10.58 14.68-8.97 15.69-7.96L23.36-0.29C24.39 0.74 26.04 0.81 27.15-0.12L33.14-5.15C34.41-6.21 36.1-6.7 37.71-6.31C39.81-5.8 41.31-4.05 41.54-1.96L42.47 6.4C42.63 7.82 43.83 8.9 45.26 8.9L56.1 8.9C57.56 8.9 58.77 7.79 58.9 6.34L59.58-1.46C59.72-3.11 60.58-4.65 61.99-5.51C63.83-6.63 66.13-6.46 67.77-5.15L74.34 0.1C75.46 0.99 77.07 0.9 78.08-0.11L85.75-7.78C86.78-8.81 86.85-10.46 85.92-11.57L80.89-17.56C79.83-18.83 79.34-20.52 79.73-22.13C80.24-24.23 81.99-25.73 84.08-25.96L92.41-26.89C93.83-27.05 94.91-28.25 94.91-29.68L94.91-40.53C94.91-41.99 93.8-43.2 92.34-43.33ZM50.83-20.4C42.65-20.4 36.02-27.03 36.02-35.21C36.02-43.39 42.65-50.02 50.83-50.02C59.01-50.02 65.64-43.39 65.64-35.21C65.64-27.03 59.01-20.4 50.83-20.4Z"/>
  </g>
  <g id="Regular-S" transform="matrix(1 0 0 1 1402.85 696)">
   <path class="monochrome-0 multicolor-0:tintColor hierarchical-0:primary SFSymbolsPreviewWireframe" d="M84.85-42.67L77.77-43.29C76.27-43.42 74.86-44.2 74.08-45.49C73.06-47.17 73.21-49.26 74.41-50.76L79.17-56.71C79.98-57.73 79.9-59.2 78.98-60.12L71.99-67.11C71.05-68.05 69.55-68.11 68.53-67.26L63.1-62.71C61.95-61.74 60.4-61.3 58.94-61.65C57.03-62.12 55.66-63.71 55.45-65.61L54.61-73.17C54.47-74.47 53.37-75.45 52.07-75.45L42.18-75.45C40.85-75.45 39.75-74.44 39.63-73.11L39.01-66.06C38.88-64.56 38.1-63.15 36.81-62.37C35.13-61.35 33.04-61.5 31.54-62.7L25.59-67.46C24.57-68.27 23.1-68.19 22.18-67.27L15.19-60.28C14.25-59.34 14.19-57.84 15.04-56.82L19.59-51.39C20.56-50.24 21-48.69 20.65-47.23C20.18-45.32 18.59-43.95 16.69-43.74L9.1-42.89C7.8-42.75 6.82-41.65 6.82-40.35L6.82-30.46C6.82-29.13 7.84-28.03 9.16-27.91L16.24-27.29C17.74-27.16 19.15-26.38 19.93-25.09C20.95-23.41 20.8-21.32 19.6-19.82L14.82-13.84C14.01-12.82 14.09-11.35 15.01-10.43L22-3.44C22.94-2.5 24.44-2.44 25.46-3.29L30.92-7.87C32.07-8.84 33.62-9.28 35.08-8.93C36.99-8.46 38.36-6.87 38.57-4.97L39.42 2.65C39.56 3.95 40.66 4.93 41.96 4.93L51.84 4.93C53.17 4.93 54.27 3.92 54.39 2.59L55.01-4.52C55.14-6.02 55.92-7.43 57.21-8.21C58.89-9.23 60.98-9.08 62.48-7.88L68.46-3.1C69.48-2.29 70.95-2.37 71.87-3.29L78.86-10.28C79.8-11.22 79.86-12.72 79.01-13.74L74.43-19.2C73.46-20.35 73.02-21.9 73.37-23.36C73.84-25.27 75.43-26.64 77.33-26.85L84.92-27.7C86.22-27.84 87.2-28.94 87.2-30.24L87.2-40.13C87.2-41.46 86.19-42.56 84.86-42.68ZM47-21.77C39.55-21.77 33.51-27.81 33.51-35.26C33.51-42.71 39.55-48.75 47-48.75C54.45-48.75 60.49-42.71 60.49-35.26C60.49-27.81 54.45-21.77 47-21.77Z"/>
  </g>
  <g id="Ultralight-S" transform="matrix(1 0 0 1 513.801 696)">
   <path class="monochrome-0 multicolor-0:tintColor hierarchical-0:primary SFSymbolsPreviewWireframe" d="M82.69-42.41L75.81-43.01C74.35-43.14 72.98-43.89 72.22-45.14C71.23-46.77 71.38-48.81 72.54-50.26L77.16-56.04C77.95-57.03 77.87-58.46 76.98-59.35L70.18-66.15C69.27-67.06 67.81-67.13 66.82-66.3L61.54-61.87C60.42-60.93 58.92-60.5 57.5-60.84C55.64-61.29 54.31-62.84 54.11-64.69L53.29-72.04C53.15-73.3 52.08-74.25 50.82-74.25L41.21-74.25C39.92-74.25 38.84-73.26 38.73-71.98L38.13-65.13C38-63.67 37.25-62.3 36-61.54C34.37-60.55 32.33-60.7 30.88-61.86L25.1-66.48C24.11-67.27 22.68-67.19 21.79-66.3L14.99-59.5C14.08-58.59 14.01-57.13 14.84-56.14L19.27-50.87C20.21-49.75 20.64-48.25 20.3-46.83C19.85-44.97 18.3-43.64 16.45-43.44L9.07-42.62C7.81-42.48 6.86-41.41 6.86-40.15L6.86-30.54C6.86-29.25 7.85-28.17 9.13-28.06L16.01-27.46C17.47-27.33 18.84-26.58 19.6-25.33C20.59-23.7 20.44-21.66 19.28-20.21L14.63-14.4C13.84-13.41 13.92-11.98 14.81-11.09L21.6-4.3C22.51-3.39 23.97-3.32 24.96-4.15L30.26-8.6C31.38-9.54 32.88-9.97 34.3-9.63C36.16-9.18 37.49-7.63 37.69-5.78L38.52 1.63C38.66 2.89 39.73 3.84 40.99 3.84L50.59 3.84C51.88 3.84 52.96 2.85 53.07 1.57L53.67-5.34C53.8-6.8 54.55-8.17 55.8-8.93C57.43-9.92 59.47-9.77 60.92-8.61L66.73-3.96C67.72-3.17 69.15-3.25 70.04-4.14L76.83-10.93C77.74-11.84 77.81-13.3 76.98-14.29L72.53-19.6C71.59-20.72 71.16-22.22 71.5-23.64C71.95-25.5 73.5-26.83 75.35-27.03L82.73-27.85C83.99-27.99 84.94-29.06 84.94-30.32L84.94-39.93C84.94-41.22 83.95-42.3 82.67-42.41ZM45.91-22.1C38.67-22.1 32.8-27.97 32.8-35.21C32.8-42.45 38.67-48.32 45.91-48.32C53.15-48.32 59.02-42.45 59.02-35.21C59.02-27.97 53.15-22.1 45.91-22.1Z"/>
  </g>
 </g>
</svg>
