<?xml version="1.0" encoding="UTF-8"?>
<!--Generator: Apple Native CoreSVG 232.5-->
<!DOCTYPE svg
PUBLIC "-//W3C//DTD SVG 1.1//EN"
       "http://www.w3.org/Graphics/SVG/1.1/DTD/svg11.dtd">
<svg version="1.1" xmlns="http://www.w3.org/2000/svg" xmlns:xlink="http://www.w3.org/1999/xlink" width="3300" height="2200">
 <!--glyph: "", point size: 100.0, font version: "19.2d2e1", template writer version: "128"-->
 <style>.monochrome-0 {-sfsymbols-motion-group:1}
.monochrome-1 {opacity:0.0;-sfsymbols-clear-behind:true;-sfsymbols-motion-group:0}

.multicolor-0:tintColor {-sfsymbols-motion-group:1}
.multicolor-1:white {-sfsymbols-clear-behind:true;-sfsymbols-motion-group:0}

.hierarchical-0:primary {-sfsymbols-motion-group:1}
.hierarchical-1:secondary {-sfsymbols-clear-behind:true;-sfsymbols-motion-group:0}

.SFSymbolsPreviewWireframe {fill:none;opacity:1.0;stroke:black;stroke-width:0.5}
</style>
 <g id="Notes">
  <rect height="2200" id="artboard" style="fill:white;opacity:1" width="3300" x="0" y="0"/>
  <line style="fill:none;stroke:black;opacity:1;stroke-width:0.5;" x1="263" x2="3036" y1="292" y2="292"/>
  <text style="stroke:none;fill:black;font-family:sans-serif;font-size:13;font-weight:bold;" transform="matrix(1 0 0 1 263 322)">Weight/Scale Variations</text>
  <text style="stroke:none;fill:black;font-family:sans-serif;font-size:13;text-anchor:middle;" transform="matrix(1 0 0 1 559.711 322)">Ultralight</text>
  <text style="stroke:none;fill:black;font-family:sans-serif;font-size:13;text-anchor:middle;" transform="matrix(1 0 0 1 856.422 322)">Thin</text>
  <text style="stroke:none;fill:black;font-family:sans-serif;font-size:13;text-anchor:middle;" transform="matrix(1 0 0 1 1153.13 322)">Light</text>
  <text style="stroke:none;fill:black;font-family:sans-serif;font-size:13;text-anchor:middle;" transform="matrix(1 0 0 1 1449.84 322)">Regular</text>
  <text style="stroke:none;fill:black;font-family:sans-serif;font-size:13;text-anchor:middle;" transform="matrix(1 0 0 1 1746.56 322)">Medium</text>
  <text style="stroke:none;fill:black;font-family:sans-serif;font-size:13;text-anchor:middle;" transform="matrix(1 0 0 1 2043.27 322)">Semibold</text>
  <text style="stroke:none;fill:black;font-family:sans-serif;font-size:13;text-anchor:middle;" transform="matrix(1 0 0 1 2339.98 322)">Bold</text>
  <text style="stroke:none;fill:black;font-family:sans-serif;font-size:13;text-anchor:middle;" transform="matrix(1 0 0 1 2636.69 322)">Heavy</text>
  <text style="stroke:none;fill:black;font-family:sans-serif;font-size:13;text-anchor:middle;" transform="matrix(1 0 0 1 2933.4 322)">Black</text>
  <line style="fill:none;stroke:black;opacity:1;stroke-width:0.5;" x1="263" x2="3036" y1="1903" y2="1903"/>
  <g transform="matrix(0.2 0 0 0.2 263 1933)">
   <path d="m46.2402 4.15039c21.5332 0 39.4531-17.8711 39.4531-39.4043s-17.9688-39.4043-39.502-39.4043c-21.4844 0-39.3555 17.8711-39.3555 39.4043s17.9199 39.4043 39.4043 39.4043Zm0-7.42188c-17.7246 0-31.8848-14.209-31.8848-31.9824s14.1113-31.9824 31.8359-31.9824c17.7734 0 32.0312 14.209 32.0312 31.9824s-14.209 31.9824-31.9824 31.9824Zm-17.9688-31.9824c0 2.14844 1.51367 3.61328 3.75977 3.61328h10.498v10.5957c0 2.19727 1.46484 3.71094 3.61328 3.71094 2.24609 0 3.71094-1.51367 3.71094-3.71094v-10.5957h10.5957c2.19727 0 3.71094-1.46484 3.71094-3.61328 0-2.19727-1.51367-3.71094-3.71094-3.71094h-10.5957v-10.5469c0-2.24609-1.46484-3.75977-3.71094-3.75977-2.14844 0-3.61328 1.51367-3.61328 3.75977v10.5469h-10.498c-2.24609 0-3.75977 1.51367-3.75977 3.71094Z"/>
  </g>
  <g transform="matrix(0.2 0 0 0.2 281.506 1933)">
   <path d="m58.5449 14.5508c27.2461 0 49.8047-22.6074 49.8047-49.8047 0-27.2461-22.6074-49.8047-49.8535-49.8047-27.1973 0-49.7559 22.5586-49.7559 49.8047 0 27.1973 22.6074 49.8047 49.8047 49.8047Zm0-8.30078c-23.0469 0-41.4551-18.457-41.4551-41.5039s18.3594-41.5039 41.4062-41.5039 41.5527 18.457 41.5527 41.5039-18.457 41.5039-41.5039 41.5039Zm-22.6562-41.5039c0 2.39258 1.66016 4.00391 4.15039 4.00391h14.3555v14.4043c0 2.44141 1.66016 4.15039 4.05273 4.15039 2.44141 0 4.15039-1.66016 4.15039-4.15039v-14.4043h14.4043c2.44141 0 4.15039-1.61133 4.15039-4.00391 0-2.44141-1.70898-4.15039-4.15039-4.15039h-14.4043v-14.3555c0-2.49023-1.70898-4.19922-4.15039-4.19922-2.39258 0-4.05273 1.70898-4.05273 4.19922v14.3555h-14.3555c-2.49023 0-4.15039 1.70898-4.15039 4.15039Z"/>
  </g>
  <g transform="matrix(0.2 0 0 0.2 304.924 1933)">
   <path d="m74.8535 28.3203c34.8145 0 63.623-28.8086 63.623-63.5742 0-34.8145-28.8574-63.623-63.6719-63.623-34.7656 0-63.5254 28.8086-63.5254 63.623 0 34.7656 28.8086 63.5742 63.5742 63.5742Zm0-9.08203c-30.1758 0-54.4434-24.3164-54.4434-54.4922 0-30.2246 24.2188-54.4922 54.3945-54.4922 30.2246 0 54.541 24.2676 54.541 54.4922 0 30.1758-24.2676 54.4922-54.4922 54.4922Zm-28.8574-54.4922c0 2.58789 1.85547 4.39453 4.58984 4.39453h19.7266v19.7754c0 2.68555 1.85547 4.58984 4.44336 4.58984 2.68555 0 4.54102-1.85547 4.54102-4.58984v-19.7754h19.7754c2.68555 0 4.58984-1.80664 4.58984-4.39453 0-2.73438-1.85547-4.58984-4.58984-4.58984h-19.7754v-19.7266c0-2.73438-1.85547-4.63867-4.54102-4.63867-2.58789 0-4.44336 1.9043-4.44336 4.63867v19.7266h-19.7266c-2.73438 0-4.58984 1.85547-4.58984 4.58984Z"/>
  </g>
  <text style="stroke:none;fill:black;font-family:sans-serif;font-size:13;font-weight:bold;" transform="matrix(1 0 0 1 263 1953)">Design Variations</text>
  <text style="stroke:none;fill:black;font-family:sans-serif;font-size:13;" transform="matrix(1 0 0 1 263 1971)">Symbols are supported in up to nine weights and three scales.</text>
  <text style="stroke:none;fill:black;font-family:sans-serif;font-size:13;" transform="matrix(1 0 0 1 263 1989)">For optimal layout with text and other symbols, vertically align</text>
  <text style="stroke:none;fill:black;font-family:sans-serif;font-size:13;" transform="matrix(1 0 0 1 263 2007)">symbols with the adjacent text.</text>
  <line style="fill:none;stroke:#00AEEF;stroke-width:0.5;opacity:1.0;" x1="776" x2="776" y1="1919" y2="1933"/>
  <g transform="matrix(0.2 0 0 0.2 776 1933)">
   <path d="m16.5527 0.78125c2.58789 0 3.85742-0.976562 4.78516-3.71094l6.29883-17.2363h28.8086l6.29883 17.2363c0.927734 2.73438 2.19727 3.71094 4.73633 3.71094 2.58789 0 4.24805-1.5625 4.24805-4.00391 0-0.830078-0.146484-1.61133-0.537109-2.63672l-22.9004-60.9863c-1.12305-2.97852-3.125-4.49219-6.25-4.49219-3.02734 0-5.07812 1.46484-6.15234 4.44336l-22.9004 61.084c-0.390625 1.02539-0.537109 1.80664-0.537109 2.63672 0 2.44141 1.5625 3.95508 4.10156 3.95508Zm13.4766-28.3691 11.8652-32.8613h0.244141l11.8652 32.8613Z"/>
  </g>
  <line style="fill:none;stroke:#00AEEF;stroke-width:0.5;opacity:1.0;" x1="792.836" x2="792.836" y1="1919" y2="1933"/>
  <text style="stroke:none;fill:black;font-family:sans-serif;font-size:13;font-weight:bold;" transform="matrix(1 0 0 1 776 1953)">Margins</text>
  <text style="stroke:none;fill:black;font-family:sans-serif;font-size:13;" transform="matrix(1 0 0 1 776 1971)">Leading and trailing margins on the left and right side of each symbol</text>
  <text style="stroke:none;fill:black;font-family:sans-serif;font-size:13;" transform="matrix(1 0 0 1 776 1989)">can be adjusted by modifying the x-location of the margin guidelines.</text>
  <text style="stroke:none;fill:black;font-family:sans-serif;font-size:13;" transform="matrix(1 0 0 1 776 2007)">Modifications are automatically applied proportionally to all</text>
  <text style="stroke:none;fill:black;font-family:sans-serif;font-size:13;" transform="matrix(1 0 0 1 776 2025)">scales and weights.</text>
  <g transform="matrix(0.2 0 0 0.2 1289 1933)">
   <path d="m14.209 9.32617 8.49609 8.54492c4.29688 4.3457 9.22852 4.05273 13.8672-1.07422l53.4668-58.9355-4.83398-4.88281-53.0762 58.3984c-1.75781 2.00195-3.41797 2.49023-5.76172 0.146484l-5.85938-5.81055c-2.34375-2.29492-1.80664-4.00391 0.195312-5.81055l57.373-54.0039-4.88281-4.83398-57.959 54.4434c-4.93164 4.58984-5.32227 9.47266-1.02539 13.8184Zm32.0801-90.9668c-2.09961 2.05078-2.24609 4.93164-1.07422 6.88477 1.17188 1.80664 3.4668 2.97852 6.68945 2.14844 7.32422-1.70898 14.9414-2.00195 22.0703 2.68555l-2.92969 7.27539c-1.70898 4.15039-0.830078 7.08008 1.85547 9.81445l11.4746 11.5723c2.44141 2.44141 4.49219 2.53906 7.32422 2.05078l5.32227-0.976562 3.32031 3.36914-0.195312 2.7832c-0.195312 2.49023 0.439453 4.39453 2.88086 6.78711l3.80859 3.71094c2.39258 2.39258 5.46875 2.53906 7.8125 0.195312l14.5508-14.5996c2.34375-2.34375 2.24609-5.32227-0.146484-7.71484l-3.85742-3.80859c-2.39258-2.39258-4.24805-3.17383-6.64062-2.97852l-2.88086 0.244141-3.22266-3.17383 1.2207-5.61523c0.634766-2.83203-0.146484-5.0293-3.07617-7.95898l-10.9863-10.9375c-16.6992-16.6016-38.8672-16.2109-53.3203-1.75781Zm7.4707 1.85547c12.1582-8.88672 28.6133-7.37305 39.7461 3.75977l12.1582 12.0605c1.17188 1.17188 1.36719 2.09961 1.02539 3.80859l-1.61133 7.42188 7.51953 7.42188 4.93164-0.292969c1.26953-0.0488281 1.66016 0.0488281 2.63672 1.02539l2.88086 2.88086-12.207 12.207-2.88086-2.88086c-0.976562-0.976562-1.12305-1.36719-1.07422-2.68555l0.341797-4.88281-7.4707-7.42188-7.61719 1.26953c-1.61133 0.341797-2.34375 0.195312-3.56445-0.976562l-10.0098-10.0098c-1.26953-1.17188-1.41602-2.00195-0.634766-3.85742l4.39453-10.4492c-7.8125-7.27539-17.9688-10.4004-28.125-7.42188-0.78125 0.195312-1.07422-0.439453-0.439453-0.976562Z"/>
  </g>
  <text style="stroke:none;fill:black;font-family:sans-serif;font-size:13;font-weight:bold;" transform="matrix(1 0 0 1 1289 1953)">Exporting</text>
  <text style="stroke:none;fill:black;font-family:sans-serif;font-size:13;" transform="matrix(1 0 0 1 1289 1971)">Symbols should be outlined when exporting to ensure the</text>
  <text style="stroke:none;fill:black;font-family:sans-serif;font-size:13;" transform="matrix(1 0 0 1 1289 1989)">design is preserved when submitting to Xcode.</text>
  <text id="template-version" style="stroke:none;fill:black;font-family:sans-serif;font-size:13;text-anchor:end;" transform="matrix(1 0 0 1 3036 1933)">Template v.5.0</text>
  <text style="stroke:none;fill:black;font-family:sans-serif;font-size:13;text-anchor:end;" transform="matrix(1 0 0 1 3036 1951)">Requires Xcode 15 or greater</text>
  <text id="descriptive-name" style="stroke:none;fill:black;font-family:sans-serif;font-size:13;text-anchor:end;" transform="matrix(1 0 0 1 3036 1969)">Generated from in-sight.eye.open</text>
  <text style="stroke:none;fill:black;font-family:sans-serif;font-size:13;text-anchor:end;" transform="matrix(1 0 0 1 3036 1987)">Typeset at 100.0 points</text>
  <text style="stroke:none;fill:black;font-family:sans-serif;font-size:13;" transform="matrix(1 0 0 1 263 726)">Small</text>
  <text style="stroke:none;fill:black;font-family:sans-serif;font-size:13;" transform="matrix(1 0 0 1 263 1156)">Medium</text>
  <text style="stroke:none;fill:black;font-family:sans-serif;font-size:13;" transform="matrix(1 0 0 1 263 1586)">Large</text>
 </g>
 <g id="Guides">
  <g id="H-reference" style="fill:#27AAE1;stroke:none;" transform="matrix(1 0 0 1 339 696)">
   <path d="M0.993654 0L3.63775 0L29.3281-67.1323L30.0303-67.1323L30.0303-70.459L28.1226-70.459ZM11.6885-24.4799L46.9815-24.4799L46.2315-26.7285L12.4385-26.7285ZM55.1196 0L57.7637 0L30.6382-70.459L29.4326-70.459L29.4326-67.1323Z"/>
  </g>
  <line id="Baseline-S" style="fill:none;stroke:#27AAE1;opacity:1;stroke-width:0.5;" x1="263" x2="3036" y1="696" y2="696"/>
  <line id="Capline-S" style="fill:none;stroke:#27AAE1;opacity:1;stroke-width:0.5;" x1="263" x2="3036" y1="625.541" y2="625.541"/>
  <g id="H-reference" style="fill:#27AAE1;stroke:none;" transform="matrix(1 0 0 1 339 1126)">
   <path d="M0.993654 0L3.63775 0L29.3281-67.1323L30.0303-67.1323L30.0303-70.459L28.1226-70.459ZM11.6885-24.4799L46.9815-24.4799L46.2315-26.7285L12.4385-26.7285ZM55.1196 0L57.7637 0L30.6382-70.459L29.4326-70.459L29.4326-67.1323Z"/>
  </g>
  <line id="Baseline-M" style="fill:none;stroke:#27AAE1;opacity:1;stroke-width:0.5;" x1="263" x2="3036" y1="1126" y2="1126"/>
  <line id="Capline-M" style="fill:none;stroke:#27AAE1;opacity:1;stroke-width:0.5;" x1="263" x2="3036" y1="1055.54" y2="1055.54"/>
  <g id="H-reference" style="fill:#27AAE1;stroke:none;" transform="matrix(1 0 0 1 339 1556)">
   <path d="M0.993654 0L3.63775 0L29.3281-67.1323L30.0303-67.1323L30.0303-70.459L28.1226-70.459ZM11.6885-24.4799L46.9815-24.4799L46.2315-26.7285L12.4385-26.7285ZM55.1196 0L57.7637 0L30.6382-70.459L29.4326-70.459L29.4326-67.1323Z"/>
  </g>
  <line id="Baseline-L" style="fill:none;stroke:#27AAE1;opacity:1;stroke-width:0.5;" x1="263" x2="3036" y1="1556" y2="1556"/>
  <line id="Capline-L" style="fill:none;stroke:#27AAE1;opacity:1;stroke-width:0.5;" x1="263" x2="3036" y1="1485.54" y2="1485.54"/>
  <line id="left-margin-Ultralight-S" style="fill:none;stroke:#00AEEF;stroke-width:0.5;opacity:1.0;" x1="515.651" x2="515.651" y1="600.785" y2="720.121"/>
  <line id="right-margin-Ultralight-S" style="fill:none;stroke:#00AEEF;stroke-width:0.5;opacity:1.0;" x1="603.771" x2="603.771" y1="600.785" y2="720.121"/>
  <line id="left-margin-Regular-S" style="fill:none;stroke:#00AEEF;stroke-width:0.5;opacity:1.0;" x1="1403.58" x2="1403.58" y1="600.785" y2="720.121"/>
  <line id="right-margin-Regular-S" style="fill:none;stroke:#00AEEF;stroke-width:0.5;opacity:1.0;" x1="1496.11" x2="1496.11" y1="600.785" y2="720.121"/>
  <line id="left-margin-Black-S" style="fill:none;stroke:#00AEEF;stroke-width:0.5;opacity:1.0;" x1="2884.57" x2="2884.57" y1="600.785" y2="720.121"/>
  <line id="right-margin-Black-S" style="fill:none;stroke:#00AEEF;stroke-width:0.5;opacity:1.0;" x1="2982.23" x2="2982.23" y1="600.785" y2="720.121"/>
 </g>
 <g id="Symbols">
  <g id="Black-S" transform="matrix(1 0 0 1 2884.57 696)">
   <path class="monochrome-0 multicolor-0:tintColor hierarchical-0:primary SFSymbolsPreviewWireframe" d="M90.34-50.96C90.84-51.46 90.84-52.27 90.34-52.77L88.58-54.53C88.08-55.03 87.27-55.03 86.77-54.53L84.23-51.99C80.88-48.64 75.64-48.13 71.71-50.76C67.26-53.74 62.2-55.88 56.78-56.95C53.62-57.57 51.35-60.37 51.35-63.59L51.35-69.2C51.35-69.91 50.78-70.48 50.07-70.48L47.59-70.48C46.88-70.48 46.31-69.91 46.31-69.2L46.31-63.59C46.31-60.37 44.04-57.57 40.88-56.95C35.46-55.88 30.4-53.75 25.95-50.76C22.02-48.13 16.77-48.64 13.43-51.99L10.89-54.53C10.39-55.03 9.58-55.03 9.08-54.53L7.32-52.77C6.82-52.27 6.82-51.46 7.32-50.96L14.52-43.76C15.58-42.7 15.7-41.04 14.85-39.81C10.77-33.89 8.18-26.85 7.68-19.22C7.65-18.78 7.63-17.85 7.61-17C7.58-15.92 8.09-14.89 8.96-14.25C13.75-10.77 30.3 0.18 48.83 0.18C67.36 0.18 83.91-10.77 88.7-14.25C89.58-14.89 90.08-15.91 90.05-17C90.03-17.85 90-18.78 89.98-19.22C89.48-26.85 86.89-33.89 82.81-39.81C81.96-41.04 82.08-42.7 83.14-43.76L90.34-50.96Z"/>
   <path class="monochrome-1 multicolor-1:white hierarchical-1:secondary SFSymbolsPreviewWireframe" d="M42.5-51.44C43.11-51.66 43.79-51.35 44.01-50.74C44.66-48.95 44.96-47 44.8-44.95C44.29-38.38 39.06-33 32.5-32.33C32.17-32.3 31.84-32.28 31.51-32.27C30.87-32.26 30.34-32.77 30.32-33.41C30.32-33.62 30.31-33.83 30.31-34.05C30.31-42.04 35.39-48.85 42.49-51.44ZM84.78-20.78C84.78-20.78 84.78-20.77 84.78-20.76C85-18.89 84.13-17.05 82.56-16.01C76.64-12.11 63.66-4.86 48.83-4.86C34-4.86 21.01-12.11 15.1-16.01C13.54-17.04 12.69-18.86 12.88-20.72C12.89-20.83 12.9-20.92 12.91-20.99C13.99-29.68 18.17-37.39 24.26-43.02C25.32-44 26.97-42.9 26.51-41.54C25.49-38.52 25.07-35.22 25.39-31.8C26.45-20.42 35.76-11.34 47.16-10.55C60.9-9.59 72.39-20.5 72.39-34.05C72.39-36.68 71.95-39.21 71.15-41.57C70.69-42.92 72.36-43.99 73.4-43.02C79.54-37.34 83.74-29.55 84.78-20.78Z"/>
  </g>
  <g id="Regular-S" transform="matrix(1 0 0 1 1403.58 696)">
   <path class="monochrome-0 multicolor-0:tintColor hierarchical-0:primary SFSymbolsPreviewWireframe" d="M85.41-50.11C85.88-50.58 85.88-51.34 85.41-51.81L83.75-53.47C83.28-53.94 82.52-53.94 82.05-53.47L79.65-51.07C76.49-47.91 71.55-47.43 67.84-49.91C63.64-52.72 58.87-54.74 53.76-55.75C50.78-56.34 48.64-58.97 48.64-62.01L48.64-67.31C48.64-67.98 48.1-68.51 47.44-68.51L45.1-68.51C44.43-68.51 43.9-67.97 43.9-67.31L43.9-62.01C43.9-58.97 41.76-56.34 38.78-55.75C33.67-54.74 28.9-52.73 24.7-49.91C20.99-47.43 16.05-47.91 12.89-51.07L10.49-53.47C10.02-53.94 9.26-53.94 8.79-53.47L7.13-51.81C6.66-51.34 6.66-50.58 7.13-50.11L13.92-43.32C14.92-42.32 15.03-40.76 14.23-39.59C10.38-34.01 7.94-27.37 7.47-20.17C7.44-19.76 7.42-18.88 7.4-18.08C7.38-17.06 7.85-16.09 8.68-15.49C13.2-12.21 28.81-1.88 46.28-1.88C63.75-1.88 79.36-12.21 83.88-15.49C84.71-16.09 85.18-17.06 85.16-18.08C85.14-18.88 85.12-19.76 85.09-20.17C84.62-27.36 82.18-34 78.33-39.59C77.53-40.75 77.64-42.32 78.64-43.32L85.43-50.11Z"/>
   <path class="monochrome-1 multicolor-1:white hierarchical-1:secondary SFSymbolsPreviewWireframe" d="M40.29-50.56C40.86-50.77 41.51-50.48 41.72-49.9C42.33-48.21 42.61-46.37 42.47-44.44C41.99-38.24 37.06-33.17 30.87-32.53C30.56-32.5 30.25-32.48 29.94-32.47C29.34-32.46 28.84-32.94 28.82-33.55C28.82-33.75 28.81-33.95 28.81-34.15C28.81-41.68 33.6-48.11 40.3-50.55ZM80.16-21.65C80.16-21.65 80.16-21.64 80.16-21.63C80.36-19.87 79.55-18.13 78.07-17.15C72.49-13.47 60.25-6.64 46.26-6.64C32.27-6.64 20.03-13.47 14.45-17.15C12.98-18.12 12.18-19.84 12.35-21.59C12.35-21.69 12.37-21.78 12.38-21.85C13.4-30.05 17.34-37.31 23.09-42.63C24.09-43.55 25.64-42.52 25.21-41.24C24.25-38.39 23.85-35.28 24.15-32.05C25.15-21.32 33.93-12.76 44.68-12.01C57.64-11.11 68.48-21.4 68.48-34.17C68.48-36.65 68.07-39.04 67.31-41.27C66.88-42.54 68.45-43.55 69.44-42.64C75.23-37.28 79.19-29.94 80.17-21.66Z"/>
  </g>
  <g id="Ultralight-S" transform="matrix(1 0 0 1 515.651 696)">
   <path class="monochrome-0 multicolor-0:tintColor hierarchical-0:primary SFSymbolsPreviewWireframe" d="M80.93-49.25C81.37-49.69 81.37-50.41 80.93-50.85L79.37-52.41C78.93-52.85 78.21-52.85 77.77-52.41L75.51-50.15C72.54-47.18 67.88-46.72 64.39-49.06C60.43-51.71 55.94-53.61 51.13-54.56C48.32-55.11 46.31-57.59 46.31-60.46L46.31-65.45C46.31-66.08 45.8-66.58 45.18-66.58L42.97-66.58C42.34-66.58 41.84-66.07 41.84-65.45L41.84-60.46C41.84-57.6 39.83-55.12 37.02-54.56C32.2-53.61 27.71-51.71 23.76-49.06C20.27-46.72 15.61-47.18 12.64-50.15L10.38-52.41C9.94-52.85 9.22-52.85 8.78-52.41L7.22-50.85C6.78-50.41 6.78-49.69 7.22-49.25L13.61-42.86C14.55-41.92 14.66-40.45 13.9-39.35C10.27-34.09 7.97-27.84 7.53-21.06C7.5-20.67 7.48-19.84 7.46-19.09C7.44-18.13 7.88-17.22 8.66-16.65C12.91-13.56 27.61-3.84 44.07-3.84C60.53-3.84 75.23-13.57 79.48-16.65C80.26-17.22 80.71-18.13 80.68-19.09C80.66-19.84 80.64-20.67 80.61-21.06C80.17-27.84 77.87-34.09 74.24-39.35C73.48-40.45 73.59-41.92 74.53-42.86L80.92-49.25Z"/>
   <path class="monochrome-1 multicolor-1:white hierarchical-1:secondary SFSymbolsPreviewWireframe" d="M38.44-49.68C38.98-49.88 39.59-49.6 39.78-49.06C40.36-47.47 40.62-45.74 40.48-43.92C40.03-38.08 35.38-33.31 29.56-32.71C29.26-32.68 28.97-32.66 28.68-32.66C28.11-32.65 27.64-33.1 27.62-33.67C27.62-33.86 27.61-34.05 27.61-34.24C27.61-41.33 32.13-47.39 38.43-49.69ZM75.99-22.45C75.99-22.45 75.99-22.44 75.99-22.43C76.18-20.77 75.42-19.13 74.02-18.21C68.77-14.74 57.23-8.31 44.06-8.31C30.89-8.31 19.35-14.75 14.1-18.21C12.72-19.12 11.96-20.74 12.13-22.39C12.13-22.48 12.15-22.57 12.16-22.63C13.12-30.35 16.83-37.19 22.24-42.2C23.18-43.07 24.64-42.1 24.23-40.89C23.32-38.21 22.95-35.28 23.23-32.23C24.17-22.12 32.44-14.06 42.57-13.35C54.78-12.5 64.98-22.19 64.98-34.22C64.98-36.56 64.59-38.8 63.88-40.9C63.47-42.1 64.95-43.05 65.88-42.19C71.34-37.14 75.06-30.23 75.98-22.43Z"/>
  </g>
 </g>
</svg>
